<?xml version="1.0" standalone="no"?>
<!DOCTYPE svg PUBLIC "-//W3C//DTD SVG 20010904//EN"
 "http://www.w3.org/TR/2001/REC-SVG-20010904/DTD/svg10.dtd">
<svg version="1.0" xmlns="http://www.w3.org/2000/svg"
 width="137.000000pt" height="137.000000pt" viewBox="0 0 137.000000 137.000000"
 preserveAspectRatio="xMidYMid meet">
<metadata>
Created by potrace 1.11, written by Peter Selinger 2001-2013
</metadata>
<g transform="translate(0.000000,137.000000) scale(0.100000,-0.100000)"
fill="#000000" stroke="none">
<path d="M574 1245 c-3 -8 -11 -12 -17 -8 -6 3 -7 1 -3 -5 11 -18 -5 -14 -26
5 -18 16 -18 16 -12 0 4 -11 1 -17 -9 -17 -23 0 -117 -42 -117 -52 0 -5 5 -6
10 -3 6 3 10 1 10 -5 0 -6 -10 -8 -23 -5 -19 5 -37 -6 -92 -58 -43 -39 -63
-64 -52 -64 9 0 19 8 22 18 7 21 32 32 41 18 3 -6 3 -13 0 -16 -3 -4 -6 -1 -6
6 0 7 -5 9 -10 6 -6 -4 -7 -11 -4 -17 4 -6 2 -8 -3 -5 -6 4 -14 0 -17 -8 -3
-8 -9 -15 -13 -14 -4 1 -17 1 -28 0 -17 -1 -18 -3 -5 -12 12 -9 11 -10 -6 -6
-18 4 -20 0 -16 -21 3 -16 1 -23 -5 -19 -10 6 -29 -38 -24 -57 1 -5 -4 -6 -11
-4 -9 4 -13 -4 -14 -23 -1 -18 3 -26 10 -23 6 3 0 -4 -13 -15 -13 -12 -19 -21
-13 -21 6 0 8 -9 5 -20 -3 -11 -8 -18 -12 -16 -3 2 -6 -10 -5 -26 0 -17 8 -35
18 -40 9 -5 14 -13 12 -17 -3 -4 5 -13 16 -20 18 -11 20 -11 15 4 -4 9 -3 14
2 10 5 -3 11 0 13 7 3 7 7 5 11 -6 4 -9 3 -15 -2 -12 -5 3 -12 -1 -15 -9 -5
-14 -8 -14 -31 1 -14 9 -22 20 -19 25 3 5 -1 9 -9 9 -7 0 -14 -7 -14 -15 0 -8
4 -15 9 -15 4 0 8 -5 8 -11 0 -5 -4 -8 -9 -5 -17 11 -3 -55 15 -70 15 -13 16
-15 3 -11 -13 4 -15 1 -12 -14 3 -10 9 -19 14 -19 5 0 9 -5 9 -11 0 -5 -4 -8
-8 -5 -5 3 -9 -1 -9 -9 0 -8 4 -15 9 -15 4 0 8 -8 8 -18 0 -10 7 -27 15 -38 8
-12 11 -24 8 -28 -3 -3 -1 -6 5 -6 7 0 12 -6 12 -14 0 -7 10 -21 23 -30 12 -9
15 -14 7 -10 -16 7 27 -44 69 -84 28 -26 39 -22 19 7 -8 12 -17 19 -20 16 -3
-3 -13 6 -22 20 -9 14 -15 26 -14 26 17 8 51 3 55 -7 3 -8 9 -11 14 -8 5 3 12
-2 15 -10 3 -9 9 -14 14 -11 4 2 16 -2 26 -11 18 -14 18 -15 -2 -5 -12 6 -24
8 -27 4 -4 -3 -9 2 -13 11 -3 9 -10 13 -15 10 -5 -3 -11 1 -14 8 -3 8 -14 14
-25 15 -16 1 -18 -1 -8 -17 7 -10 16 -16 20 -14 5 3 11 -2 14 -10 3 -9 10 -14
14 -11 5 3 7 -8 5 -25 -2 -16 0 -30 6 -30 5 0 20 -9 32 -20 12 -11 27 -18 34
-16 6 3 14 -3 16 -12 3 -14 6 -12 16 8 l11 25 -5 -28 c-3 -15 -2 -26 2 -25 5
1 18 -3 29 -10 12 -6 24 -8 28 -4 4 3 10 1 14 -5 4 -6 21 -13 37 -16 17 -3 40
-8 53 -11 13 -3 20 -1 17 5 -4 5 -2 9 4 9 5 0 11 -8 13 -17 3 -16 6 -15 27 6
16 16 22 18 18 8 -3 -9 -2 -19 3 -22 6 -4 11 -1 11 4 1 6 2 16 3 23 0 6 8 13
16 15 9 3 11 1 5 -4 -16 -13 -16 -33 1 -33 9 0 12 5 8 13 -6 9 -4 9 8 -1 11
-9 23 -10 42 -2 14 5 26 7 26 3 0 -4 7 2 16 13 8 10 13 13 9 7 -8 -17 3 -16
55 2 23 8 47 12 53 8 6 -3 7 -1 3 5 -4 7 9 19 31 31 21 11 49 29 63 41 21 17
23 21 10 29 -8 6 -11 14 -6 18 5 4 11 2 13 -4 7 -19 23 -16 24 5 0 10 3 12 6
5 3 -10 8 -10 19 1 8 8 14 20 14 26 0 6 5 8 12 4 7 -4 8 -3 4 4 -4 7 -2 12 5
12 7 0 10 3 6 6 -3 3 3 15 14 27 21 23 24 33 9 42 -5 3 -10 11 -10 18 0 6 6 3
13 -8 13 -17 15 -16 31 15 11 24 13 36 5 40 -6 5 -3 9 8 12 11 3 20 13 20 22
0 11 -6 15 -16 11 -9 -3 -5 3 8 14 15 12 22 24 18 35 -4 9 -2 16 4 16 6 0 8 4
4 10 -3 5 -13 7 -23 4 -9 -2 -7 1 6 7 15 8 21 18 16 31 -3 11 0 18 7 18 7 0 5
7 -7 16 -10 8 -13 13 -7 9 10 -5 12 10 9 62 -2 37 -9 69 -14 71 -5 1 -8 12 -5
22 5 21 -4 24 -31 14 -9 -3 -13 -10 -10 -15 7 -12 -22 -23 -42 -15 -13 5 -13
9 3 30 10 13 20 22 22 20 2 -2 -4 -13 -14 -24 -18 -19 -17 -20 4 -20 12 0 19
4 16 10 -3 5 5 15 19 21 19 9 23 16 17 28 -5 9 -9 19 -10 24 -2 23 -33 65 -52
70 -11 3 -18 10 -15 15 3 6 -1 13 -10 16 -22 8 -26 8 -19 -4 3 -5 1 -10 -4
-10 -6 0 -11 4 -11 9 0 17 19 22 40 11 28 -15 25 -6 -10 30 -16 17 -30 35 -30
41 0 6 -4 8 -9 4 -5 -3 -12 3 -14 12 -3 11 -5 8 -6 -10 -1 -17 4 -26 12 -25 7
2 12 -7 12 -22 0 -15 -5 -24 -12 -22 -7 1 -13 -7 -13 -18 0 -11 5 -19 12 -18
6 2 14 -5 16 -14 2 -10 -1 -18 -7 -18 -6 0 -8 7 -4 15 3 10 0 15 -8 13 -9 -2
-14 6 -14 22 0 15 5 24 13 22 6 -1 12 7 12 18 0 11 -6 19 -12 18 -7 -2 -14 7
-16 20 -7 46 -52 77 -52 36 0 -8 5 -12 10 -9 6 3 13 -2 16 -12 3 -10 10 -26
15 -35 14 -27 11 -34 -6 -12 -8 10 -15 27 -15 37 0 9 -6 16 -12 15 -9 -2 -13
9 -12 33 1 20 -4 36 -10 37 -24 2 -86 27 -86 34 0 5 -5 8 -11 8 -5 0 -7 -4 -4
-10 10 -16 -7 -12 -19 5 -10 13 -37 22 -74 24 -7 1 -11 4 -9 9 3 4 -10 7 -28
7 -18 0 -31 -3 -28 -7 2 -5 -3 -8 -12 -8 -9 0 -14 4 -11 9 6 10 -71 7 -81 -2
-3 -4 -14 -2 -24 4 -15 7 -21 6 -25 -6z m48 -9 c10 6 11 4 0 -7 -10 -11 -15
-10 -30 6 -15 17 -15 18 0 6 9 -7 23 -9 30 -5z m41 -7 c-8 -8 -13 -7 -18 2 -5
8 -4 10 3 5 7 -4 12 -2 12 5 0 7 3 9 7 6 4 -4 2 -12 -4 -18z m21 -14 c-5 -19
-3 -25 7 -23 8 2 14 -7 15 -22 2 -22 2 -22 -3 -2 -2 12 -8 20 -13 17 -13 -8
-22 13 -15 35 9 29 17 25 9 -5z m104 4 c2 -8 0 -10 -5 -4 -4 6 -17 12 -27 13
-17 3 -18 2 -7 -12 8 -9 9 -16 3 -16 -12 0 -23 25 -15 34 10 10 47 -1 51 -15z
m-238 -14 c0 -2 -9 -3 -19 -2 -11 0 -18 5 -15 9 4 6 34 0 34 -7z m40 11 c0 -2
-7 -7 -16 -10 -8 -3 -12 -2 -9 4 6 10 25 14 25 6z m60 -17 c0 -6 -4 -7 -10 -4
-5 3 -10 11 -10 16 0 6 5 7 10 4 6 -3 10 -11 10 -16z m74 5 c9 -24 2 -26 -12
-4 -7 11 -8 20 -3 20 5 0 12 -7 15 -16z m77 -17 c-8 -8 -14 -7 -23 2 -11 11
-10 13 5 8 12 -4 17 -1 18 11 0 12 2 13 6 4 3 -8 0 -19 -6 -25z m42 18 c-3
-10 0 -15 8 -13 9 2 14 -6 14 -19 0 -13 -4 -23 -8 -22 -5 0 -15 -8 -23 -18
-14 -17 -14 -16 -4 5 6 12 15 20 21 17 5 -4 9 3 9 15 0 12 -4 19 -9 15 -12 -7
-24 12 -16 25 10 15 15 12 8 -5z m-338 -35 c0 -19 -5 -25 -24 -25 -18 0 -25 6
-28 25 -2 18 -1 21 6 10 5 -8 8 -17 5 -21 -2 -4 4 -7 15 -6 12 1 19 8 18 19
-1 11 -7 16 -14 14 -7 -3 -13 -1 -13 5 0 6 8 9 17 7 11 -2 18 -12 18 -28z
m117 11 c-2 -10 5 -12 25 -7 23 5 25 4 10 -5 -21 -12 -51 -4 -42 11 3 5 -3 10
-14 10 -12 0 -20 -6 -18 -12 1 -7 -4 -13 -12 -13 -8 0 -15 6 -17 13 -1 7 0 8
3 2 5 -12 24 -14 22 -2 -3 18 3 23 24 20 12 -2 21 -9 19 -17z m-95 -13 c-3 -8
-6 -5 -6 6 -1 11 2 17 5 13 3 -3 4 -12 1 -19z m388 -18 c6 1 11 -7 12 -17 3
-17 2 -17 -5 0 -4 10 -12 17 -17 15 -6 -2 -11 8 -12 22 -2 24 -2 24 5 2 4 -13
12 -23 17 -22z m22 34 c-3 -3 -12 -4 -19 -1 -8 3 -5 6 6 6 11 1 17 -2 13 -5z
m-499 -29 c-3 -3 -9 2 -12 12 -6 14 -5 15 5 6 7 -7 10 -15 7 -18z m332 15 c0
-5 -7 -7 -15 -4 -8 4 -15 8 -15 10 0 2 7 4 15 4 8 0 15 -4 15 -10z m60 0 c0
-5 -4 -10 -10 -10 -5 0 -10 5 -10 10 0 6 5 10 10 10 6 0 10 -4 10 -10z m160
-15 c0 -2 -5 -7 -12 -11 -7 -4 -8 -3 -4 4 7 12 -4 16 -34 13 -13 -2 -13 0 -1
8 13 9 51 -2 51 -14z m-410 -21 c0 -2 -9 0 -20 6 -16 9 -20 8 -20 -5 0 -18
-16 -20 -26 -3 -4 6 -3 8 3 5 6 -4 14 0 17 8 4 13 10 14 26 5 11 -6 20 -13 20
-16z m30 16 c0 -5 -4 -10 -10 -10 -5 0 -10 5 -10 10 0 6 5 10 10 10 6 0 10 -4
10 -10z m67 3 c-9 -2 -14 -9 -11 -15 4 -7 2 -8 -5 -4 -15 10 -4 26 17 25 15
-1 15 -2 -1 -6z m68 -3 c-3 -5 -1 -10 6 -10 7 0 10 -3 6 -6 -9 -9 -28 6 -22
17 4 5 8 9 11 9 3 0 2 -4 -1 -10z m61 -8 c1 -7 0 -8 -3 -2 -2 5 -9 10 -14 10
-6 0 -7 -5 -3 -12 4 -7 3 -8 -5 -4 -14 9 -4 29 12 23 6 -2 12 -9 13 -15z
m-420 -18 c-3 -8 1 -14 9 -14 8 0 15 -5 15 -10 0 -20 -34 7 -35 28 -1 12 2 19
7 16 5 -4 7 -12 4 -20z m579 -14 c-4 -6 -10 -8 -15 -5 -5 3 -8 -3 -7 -14 1
-13 8 -19 20 -18 12 1 21 -5 22 -15 2 -10 -1 -18 -7 -18 -6 0 -8 7 -4 15 4 10
-1 14 -17 12 -17 -2 -21 3 -22 23 0 16 5 24 13 22 10 -2 12 4 7 20 -5 20 -4
21 5 5 6 -9 8 -22 5 -27z m-605 20 c0 -5 -5 -10 -11 -10 -5 0 -7 5 -4 10 3 6
8 10 11 10 2 0 4 -4 4 -10z m70 0 c0 -5 -4 -10 -10 -10 -5 0 -10 5 -10 10 0 6
5 10 10 10 6 0 10 -4 10 -10z m72 -14 c6 4 8 2 5 -4 -4 -5 -17 -8 -29 -4 -14
3 -19 1 -14 -6 3 -6 2 -13 -3 -16 -5 -4 -8 1 -7 10 3 19 30 38 34 24 2 -6 9
-7 14 -4z m402 -6 c-6 -6 -15 -5 -24 1 -13 9 -12 10 3 5 9 -3 17 0 17 6 0 6 3
8 7 5 4 -4 2 -12 -3 -17z m-577 -10 c-1 -11 -5 -20 -9 -20 -10 0 -10 4 -2 24
8 22 13 20 11 -4z m110 -12 c-3 -8 -6 -5 -6 6 -1 11 2 17 5 13 3 -3 4 -12 1
-19z m-59 3 c11 -6 10 -10 -5 -16 -10 -5 -21 -7 -25 -7 -5 1 -8 -5 -8 -13 0
-8 -5 -15 -10 -15 -7 0 -7 7 0 20 6 11 15 18 20 15 5 -3 11 -1 14 4 4 5 -2 12
-11 14 -13 3 -14 5 -3 6 8 0 21 -3 28 -8z m623 -8 c13 -17 13 -17 -6 -3 -11 8
-22 16 -24 17 -2 2 0 3 6 3 6 0 17 -8 24 -17z m-576 -13 c3 -5 1 -10 -4 -10
-6 0 -11 5 -11 10 0 6 2 10 4 10 3 0 8 -4 11 -10z m-21 -16 c3 -8 2 -12 -4 -9
-6 3 -10 10 -10 16 0 14 7 11 14 -7z m-36 -14 c-7 -10 -14 -17 -17 -15 -4 4
18 35 25 35 2 0 -1 -9 -8 -20z m657 0 c0 -7 -8 -14 -18 -16 -9 -1 -15 2 -11 7
3 5 10 7 15 4 5 -4 9 -2 9 4 0 5 -5 12 -10 14 -6 3 -5 4 2 3 7 -2 13 -9 13
-16z m-685 -31 c0 -6 -7 -3 -16 5 -20 21 -26 20 -22 -1 2 -10 10 -21 18 -25
11 -6 10 -7 -4 -5 -18 2 -30 32 -20 49 7 10 44 -9 44 -23z m-63 -11 c-3 -8 -6
-5 -6 6 -1 11 2 17 5 13 3 -3 4 -12 1 -19z m756 7 c-3 -9 -8 -14 -10 -11 -3 3
-2 9 2 15 9 16 15 13 8 -4z m-792 -22 c-12 -20 -14 -14 -5 12 4 9 9 14 11 11
3 -2 0 -13 -6 -23z m905 -20 c-6 -6 -36 9 -36 18 0 5 9 4 20 -3 10 -7 18 -14
16 -15z m-876 7 c0 -5 -4 -10 -10 -10 -5 0 -10 5 -10 10 0 6 5 10 10 10 6 0
10 -4 10 -10z m-40 -21 c0 -5 5 -7 10 -4 6 3 10 1 10 -4 0 -16 -16 -13 -30 4
-9 10 -9 15 -1 15 6 0 11 -5 11 -11z m90 7 c0 -2 -7 -7 -16 -10 -8 -3 -12 -2
-9 4 6 10 25 14 25 6z m750 -16 c6 -11 8 -20 6 -20 -3 0 -10 9 -16 20 -6 11
-8 20 -6 20 3 0 10 -9 16 -20z m60 -2 c0 -6 -6 -6 -14 2 -12 9 -15 8 -13 -10
1 -15 7 -20 22 -18 26 4 33 -33 10 -52 -13 -11 -18 -11 -31 3 -8 9 -9 12 -2 7
20 -16 31 -11 17 8 -13 15 -12 16 4 3 15 -12 17 -11 17 6 0 14 -7 19 -21 19
-21 -1 -35 27 -23 45 6 11 34 0 34 -13z m-846 -3 c3 -8 1 -15 -4 -15 -6 0 -10
7 -10 15 0 8 2 15 4 15 2 0 6 -7 10 -15z m885 -30 c0 -5 -4 -3 -9 5 -5 8 -9
22 -9 30 0 16 17 -16 18 -35z m-959 25 c0 -5 -7 -7 -15 -4 -8 4 -15 8 -15 10
0 2 7 4 15 4 8 0 15 -4 15 -10z m62 -33 c7 -13 7 -17 0 -13 -6 3 -13 0 -16 -6
-3 -7 -4 -4 -1 7 4 16 0 21 -16 22 -18 2 -19 0 -7 -15 12 -15 11 -16 -4 -3
-10 7 -15 17 -13 21 9 15 46 6 57 -13z m-72 -13 c0 -8 5 -12 10 -9 13 8 24
-20 16 -41 -5 -13 -9 -13 -30 3 -13 10 -22 20 -20 22 2 2 13 -4 24 -14 19 -18
20 -17 20 4 0 12 -4 20 -9 16 -6 -3 -15 4 -21 15 -7 13 -7 20 0 20 5 0 10 -7
10 -16z m995 6 c3 -5 1 -10 -4 -10 -6 0 -11 5 -11 10 0 6 2 10 4 10 3 0 8 -4
11 -10z m-937 -55 c-3 -3 -9 2 -12 12 -6 14 -5 15 5 6 7 -7 10 -15 7 -18z
m-62 -17 c10 -12 14 -18 8 -15 -7 4 -14 1 -17 -7 -6 -14 -30 -16 -43 -3 -4 3
3 5 14 2 15 -3 20 1 19 16 -1 20 -17 27 -17 7 0 -6 -3 -9 -6 -5 -7 7 4 27 15
27 4 0 16 -10 27 -22z m1014 2 c0 -5 -5 -10 -11 -10 -5 0 -7 5 -4 10 3 6 8 10
11 10 2 0 4 -4 4 -10z m-65 -18 c-3 -3 -11 0 -18 7 -9 10 -8 11 6 5 10 -3 15
-9 12 -12z m80 -2 c-3 -5 -1 -10 6 -10 7 0 10 -3 6 -6 -9 -9 -28 6 -22 17 4 5
8 9 11 9 3 0 2 -4 -1 -10z m-989 -12 c4 -7 3 -8 -4 -4 -16 9 -15 -7 0 -22 7
-7 9 -12 5 -12 -4 0 -10 -1 -14 -2 -8 -4 -14 33 -7 44 7 11 12 10 20 -4z m959
4 c-15 -11 -18 -43 -3 -40 7 2 13 -3 13 -11 0 -8 -6 -15 -13 -17 -7 -1 -8 0
-2 3 14 7 12 23 -2 21 -7 -2 -13 6 -14 17 -1 26 4 35 19 35 8 0 8 -3 2 -8z
m-61 -18 c3 -8 2 -12 -4 -9 -6 3 -10 10 -10 16 0 14 7 11 14 -7z m-989 -15
c-4 -5 -2 -9 4 -9 5 0 12 5 14 10 3 6 4 5 3 -2 -4 -19 -29 -16 -32 5 -1 9 2
15 7 11 5 -3 7 -10 4 -15z m52 -1 c-3 -8 -6 -5 -6 6 -1 11 2 17 5 13 3 -3 4
-12 1 -19z m1028 4 c-3 -3 -11 0 -18 7 -9 10 -8 11 6 5 10 -3 15 -9 12 -12z
m-59 -38 c3 -16 2 -26 -1 -23 -3 4 -8 19 -11 35 -3 16 -2 26 1 23 3 -4 8 -19
11 -35z m64 1 c-10 -12 -10 -15 0 -15 8 0 11 -3 7 -6 -14 -14 -26 7 -15 26 7
11 14 17 17 15 2 -3 -2 -11 -9 -20z m-1040 6 c0 -17 -21 -24 -33 -12 -9 9 -7
10 7 5 13 -5 17 -4 12 4 -4 7 -2 12 3 12 6 0 11 -4 11 -9z m40 -21 c0 -5 -5
-10 -11 -10 -5 0 -7 5 -4 10 3 6 8 10 11 10 2 0 4 -4 4 -10z m950 -32 c12 4
13 2 2 -9 -11 -12 -16 -11 -28 5 -8 11 -14 25 -14 30 1 6 6 2 13 -10 7 -12 19
-19 27 -16z m27 16 c-3 -3 -12 -4 -19 -1 -8 3 -5 6 6 6 11 1 17 -2 13 -5z
m-984 -29 c-3 -9 -8 -14 -10 -11 -3 3 -2 9 2 15 9 16 15 13 8 -4z m1001 -16
c0 -18 -5 -23 -20 -22 -13 1 -20 -4 -21 -17 -1 -11 4 -19 10 -17 7 1 12 -9 12
-23 0 -15 -5 -24 -13 -22 -15 3 -12 -28 3 -41 6 -5 4 -7 -5 -4 -18 4 -21 53
-2 50 6 -2 12 6 12 17 0 11 -6 19 -12 18 -8 -2 -13 7 -13 22 1 19 6 25 22 23
22 -2 27 24 8 40 -6 5 -4 7 5 5 8 -3 14 -15 14 -29z m-1058 -7 c1 -7 0 -8 -3
-2 -6 14 -24 13 -20 -1 1 -6 -5 -14 -13 -16 -13 -4 -13 -3 0 6 8 6 11 11 7 11
-5 0 -5 5 -2 11 8 13 28 7 31 -9z m31 -4 c-3 -8 -6 -5 -6 6 -1 11 2 17 5 13 3
-3 4 -12 1 -19z m953 12 c0 -5 -5 -10 -11 -10 -5 0 -7 5 -4 10 3 6 8 10 11 10
2 0 4 -4 4 -10z m7 -42 c-3 -8 -6 -5 -6 6 -1 11 2 17 5 13 3 -3 4 -12 1 -19z
m-967 2 c0 -5 -4 -10 -10 -10 -5 0 -10 5 -10 10 0 6 5 10 10 10 6 0 10 -4 10
-10z m958 -43 c-2 -11 -11 -21 -21 -23 -9 -1 -15 2 -11 7 3 5 10 7 15 4 5 -4
9 3 9 15 0 12 -4 19 -8 16 -5 -3 -9 1 -9 9 0 11 3 12 14 3 8 -6 13 -20 11 -31z
m-922 0 c-3 -25 -44 -33 -53 -11 -3 8 -9 11 -14 8 -5 -3 -6 2 -2 12 5 15 7 15
17 -2 6 -11 19 -20 28 -22 13 -2 16 3 12 24 -3 16 -1 23 6 19 5 -3 8 -16 6
-28z m931 -49 c-3 -8 -6 -5 -6 6 -1 11 2 17 5 13 3 -3 4 -12 1 -19z m-950 6
c-3 -3 -12 -4 -19 -1 -8 3 -5 6 6 6 11 1 17 -2 13 -5z m923 -4 c0 -5 -2 -10
-4 -10 -3 0 -8 5 -11 10 -3 6 -1 10 4 10 6 0 11 -4 11 -10z m-960 -10 c0 -5
-2 -10 -4 -10 -3 0 -8 5 -11 10 -3 6 -1 10 4 10 6 0 11 -4 11 -10z m65 0 c-3
-5 -11 -10 -16 -10 -6 0 -7 5 -4 10 3 6 11 10 16 10 6 0 7 -4 4 -10z m-30 -28
c0 -7 -4 -12 -9 -11 -5 0 -13 -5 -18 -13 -8 -10 -9 -10 -5 2 2 8 10 14 16 13
14 -4 15 14 1 20 -6 3 -5 4 2 3 7 -2 13 -8 13 -14z m41 9 c-3 -5 1 -12 9 -15
13 -4 14 -10 5 -26 -9 -17 -14 -18 -30 -8 -10 7 -17 14 -15 17 3 2 11 -1 19
-8 11 -9 15 -8 20 4 3 9 0 15 -9 15 -16 0 -20 12 -8 23 9 10 15 9 9 -2z m888
-5 c-10 -8 -21 -12 -24 -10 -5 6 21 24 34 24 6 0 1 -6 -10 -14z m49 -13 c3 -5
0 -17 -4 -28 -9 -18 -9 -18 -5 3 3 17 -1 22 -16 22 -11 0 -16 -4 -13 -11 4 -6
-2 -13 -14 -16 -12 -3 -21 -9 -21 -14 0 -5 -5 -9 -11 -9 -8 0 -7 6 2 16 12 15
11 16 -11 10 -19 -6 -21 -5 -10 3 8 6 25 8 38 4 12 -3 22 -1 21 3 -3 18 2 24
20 24 11 0 22 -3 24 -7z m-883 -33 c6 -11 8 -20 6 -20 -3 0 -10 9 -16 20 -6
11 -8 20 -6 20 3 0 10 -9 16 -20z m-77 -7 c3 -5 0 -17 -4 -28 -8 -18 -9 -18
-5 3 3 17 1 22 -10 18 -8 -3 -14 -1 -14 4 0 12 27 13 33 3z m71 -33 c-6 -5
-24 21 -24 34 0 6 6 1 14 -10 8 -10 12 -21 10 -24z m786 9 c0 -14 -17 -10 -23
5 -4 10 -1 13 9 9 7 -3 14 -9 14 -14z m-817 -3 c3 -8 3 -17 0 -20 -10 -10 -33
-7 -33 4 0 5 8 6 18 3 15 -6 15 -5 3 10 -7 9 -9 17 -3 17 5 0 12 -6 15 -14z
m882 3 c11 -16 1 -19 -13 -3 -7 8 -8 14 -3 14 5 0 13 -5 16 -11z m-41 -11 c-5
-8 -2 -9 10 -5 9 4 15 3 11 -2 -3 -5 0 -11 7 -13 7 -3 5 -7 -6 -11 -9 -4 -15
-3 -12 2 3 5 -1 12 -10 15 -13 5 -12 26 2 26 3 0 2 -5 -2 -12z m-752 -42 c4 3
11 -5 18 -18 10 -20 10 -21 -3 -6 -8 10 -17 15 -20 11 -4 -3 -9 2 -13 11 -3 9
-9 14 -13 12 -4 -3 -8 5 -8 17 -2 19 0 18 16 -6 10 -15 20 -24 23 -21z m673
15 c-3 -6 -11 -11 -16 -11 -5 0 -4 6 3 14 14 16 24 13 13 -3z m-728 3 c-3 -3
-12 -4 -19 -1 -8 3 -5 6 6 6 11 1 17 -2 13 -5z m790 0 c-3 -3 -12 -4 -19 -1
-8 3 -5 6 6 6 11 1 17 -2 13 -5z m-44 -19 c-3 -9 -8 -14 -10 -11 -3 3 -2 9 2
15 9 16 15 13 8 -4z m59 -20 c-2 -11 -6 -22 -9 -25 -3 -3 -4 5 -1 17 5 17 1
21 -13 20 -11 -1 -17 -8 -16 -21 2 -22 -42 -31 -50 -9 -3 7 -10 10 -16 6 -6
-3 -7 -1 -3 5 10 16 26 15 26 -1 0 -7 9 -13 20 -13 13 0 19 5 15 14 -8 20 1
29 27 28 17 -1 22 -6 20 -21z m-692 -40 c0 -5 -5 -3 -10 5 -5 8 -10 20 -10 25
0 6 5 3 10 -5 5 -8 10 -19 10 -25z m562 28 c-6 -2 -9 -10 -6 -15 4 -7 2 -8 -4
-4 -18 11 -14 26 6 25 10 0 12 -3 4 -6z m-535 -35 c-3 -8 -6 -5 -6 6 -1 11 2
17 5 13 3 -3 4 -12 1 -19z m549 0 c-2 -16 -10 -22 -23 -21 -12 1 -19 -5 -20
-16 -1 -14 4 -17 17 -14 21 6 36 -12 19 -23 -8 -5 -9 -3 -4 5 5 9 0 12 -16 9
-20 -2 -24 1 -24 22 1 20 5 25 23 23 12 -2 21 1 21 5 -2 14 1 32 6 32 3 0 3
-10 1 -22z m-46 2 c-8 -5 -22 -9 -30 -9 -10 0 -8 3 5 9 27 12 43 12 25 0z m67
-12 c-3 -8 -6 -5 -6 6 -1 11 2 17 5 13 3 -3 4 -12 1 -19z m-640 6 c-3 -3 -12
-4 -19 -1 -8 3 -5 6 6 6 11 1 17 -2 13 -5z m102 -10 c4 3 13 1 21 -5 11 -6 12
-9 2 -9 -8 0 -10 -5 -6 -12 4 -7 -2 -4 -14 6 -12 11 -22 24 -21 30 0 6 3 6 6
-2 2 -6 8 -10 12 -8z m-44 -24 c0 -17 -7 -24 -25 -27 -18 -2 -21 -1 -10 6 8 5
18 7 22 5 4 -3 8 3 8 13 0 11 -8 19 -19 20 -14 1 -18 -3 -14 -15 4 -14 3 -14
-5 -2 -14 19 -6 30 21 26 15 -2 22 -10 22 -26z m465 20 c0 -5 -5 -10 -11 -10
-5 0 -7 5 -4 10 3 6 8 10 11 10 2 0 4 -4 4 -10z m-525 -21 c11 -16 1 -19 -13
-3 -7 8 -8 14 -3 14 5 0 13 -5 16 -11z m180 -8 c-3 -6 -15 -11 -26 -11 -10 0
-18 -5 -16 -11 1 -6 -5 -14 -13 -16 -12 -4 -12 -3 -2 5 8 5 13 13 12 18 0 5 8
10 20 12 11 2 20 8 20 14 0 6 3 9 6 5 3 -3 3 -10 -1 -16z m318 0 c-4 -16 12
-14 27 4 7 8 17 15 23 15 6 0 1 -7 -11 -16 -22 -15 -22 -17 -5 -30 10 -7 14
-14 8 -14 -5 -1 -1 -6 10 -11 l20 -9 -20 3 c-11 2 -19 9 -17 16 2 9 -3 11 -13
7 -9 -3 -14 -2 -11 3 3 5 -1 12 -10 15 -8 3 -12 11 -8 17 4 8 -1 9 -17 4 -19
-5 -21 -4 -9 4 18 13 36 8 33 -8z m141 3 c3 -8 2 -12 -4 -9 -6 3 -10 10 -10
16 0 14 7 11 14 -7z m-528 -16 c5 -7 3 -8 -5 -4 -8 6 -11 2 -9 -10 2 -11 12
-24 23 -31 11 -7 16 -12 10 -12 -28 -1 -53 38 -39 61 7 11 12 10 20 -4z m334
2 c0 -5 -4 -10 -10 -10 -5 0 -10 5 -10 10 0 6 5 10 10 10 6 0 10 -4 10 -10z
m120 -15 c14 -19 14 -19 -2 -6 -10 7 -18 18 -18 24 0 6 1 8 3 6 1 -2 9 -13 17
-24z m-360 5 c0 -5 -4 -10 -10 -10 -5 0 -10 5 -10 10 0 6 5 10 10 10 6 0 10
-4 10 -10z m27 -12 c-3 -8 -6 -5 -6 6 -1 11 2 17 5 13 3 -3 4 -12 1 -19z m27
-1 c-2 -7 4 -13 16 -14 11 -1 18 2 16 6 -3 4 0 13 5 21 7 11 8 8 6 -10 -5 -34
-51 -36 -53 -3 -1 13 2 20 7 17 4 -2 6 -10 3 -17z m156 6 c0 -3 -7 -3 -15 0
-8 4 -17 2 -20 -3 -4 -6 -1 -11 4 -11 6 -1 17 -2 24 -3 6 0 12 -12 12 -25 0
-17 -6 -25 -22 -27 -27 -4 -35 7 -21 26 8 12 9 12 5 -2 -4 -12 0 -16 14 -15
11 1 19 9 19 20 0 10 -4 16 -9 13 -4 -3 -17 1 -27 9 -16 12 -17 16 -5 24 13 9
41 5 41 -6z m-252 -13 c-7 -10 -14 -17 -17 -15 -4 4 18 35 25 35 2 0 -1 -9 -8
-20z m159 -2 c-3 -8 -6 -5 -6 6 -1 11 2 17 5 13 3 -3 4 -12 1 -19z m160 16
c-3 -3 -12 -4 -19 -1 -8 3 -5 6 6 6 11 1 17 -2 13 -5z m-117 -39 c0 -5 -5 -3
-10 5 -5 8 -10 20 -10 25 0 6 5 3 10 -5 5 -8 10 -19 10 -25z m-147 -3 c-2 -15
2 -20 12 -16 8 4 12 11 8 17 -4 6 -1 7 7 2 10 -6 9 -11 -5 -21 -22 -16 -38 -8
-30 15 3 12 -1 17 -15 17 -11 0 -20 -6 -20 -13 0 -7 -5 -13 -10 -13 -7 0 -7 6
-1 18 14 27 57 22 54 -6z m279 18 c1 -3 -3 -14 -10 -25 -6 -11 -12 -15 -12 -9
0 5 6 16 13 23 10 10 8 12 -8 9 -11 -1 -26 -10 -33 -18 -11 -13 -12 -12 -3 6
9 19 48 29 53 14z m-155 -16 c-2 -3 -17 -7 -33 -10 -17 -2 -24 -1 -17 4 13 8
58 14 50 6z m-57 -39 c0 -5 -5 -3 -10 5 -5 8 -10 20 -10 25 0 6 5 3 10 -5 5
-8 10 -19 10 -25z"/>
<path d="M315 1221 c-3 -5 -2 -12 3 -15 5 -3 9 1 9 9 0 17 -3 19 -12 6z"/>
<path d="M1148 993 c7 -3 16 -2 19 1 4 3 -2 6 -13 5 -11 0 -14 -3 -6 -6z"/>
</g>
</svg>
